<?xml version="1.0" standalone="no"?>
<!DOCTYPE svg PUBLIC "-//W3C//DTD SVG 20010904//EN"
 "http://www.w3.org/TR/2001/REC-SVG-20010904/DTD/svg10.dtd">
<svg version="1.0" xmlns="http://www.w3.org/2000/svg"
 width="2000.000000pt" height="2000.000000pt" viewBox="0 0 2000.000000 2000.000000"
 preserveAspectRatio="xMidYMid meet">

<g transform="translate(0.000000,2000.000000) scale(0.100000,-0.100000)"
fill="#000000" stroke="none">
<path d="M5910 12089 c-699 -56 -1392 -368 -1873 -842 -233 -230 -465 -619
-591 -992 -254 -750 -182 -1577 197 -2270 56 -103 234 -375 244 -375 3 0 -1
10 -9 23 -179 273 -319 661 -375 1042 -24 163 -24 562 0 718 105 683 439 1282
950 1698 388 317 810 505 1317 586 110 17 289 18 4235 18 3902 0 4126 -1 4230
-18 500 -81 911 -258 1285 -553 112 -89 359 -337 442 -444 84 -109 309 -448
376 -567 185 -325 311 -717 357 -1109 20 -169 20 -499 0 -674 -37 -320 -124
-628 -261 -920 -63 -134 -44 -118 55 48 230 384 366 790 422 1257 16 128 16
500 1 630 -72 604 -277 1108 -646 1585 -189 244 -516 537 -791 707 -418 260
-893 414 -1394 453 -165 12 -8012 12 -8171 -1z"/>
<path d="M11632 11513 l-54 -4 7 -215 c4 -118 10 -228 14 -244 6 -28 13 -22
215 199 116 125 211 232 213 238 6 16 -281 35 -395 26z"/>
<path d="M11374 11476 c-49 -13 -121 -37 -160 -53 l-69 -29 0 -59 c0 -83 16
-493 21 -530 2 -16 4 -78 5 -137 0 -60 5 -106 10 -103 4 3 83 87 175 186 l166
180 -8 192 c-4 105 -8 203 -9 217 -2 14 -3 55 -4 93 -1 79 5 77 -127 43z"/>
<path d="M11929 11253 c-90 -98 -188 -204 -219 -237 l-55 -58 160 6 c88 4 200
9 249 12 l89 6 -6 117 c-6 114 -32 293 -46 319 -5 9 -59 -42 -172 -165z"/>
<path d="M11000 11278 c-153 -153 -224 -422 -200 -748 10 -131 37 -300 49
-313 6 -6 127 118 233 239 17 20 18 35 3 370 -8 192 -16 382 -17 422 -1 41 -6
75 -9 78 -4 2 -30 -20 -59 -48z"/>
<path d="M10035 11043 c-95 -8 -206 -26 -203 -33 3 -8 284 -270 290 -270 2 0
-1 66 -6 147 -8 132 -16 167 -36 161 -3 -1 -23 -3 -45 -5z"/>
<path d="M10182 11034 c3 -5 9 -67 13 -137 4 -71 8 -136 10 -145 2 -9 4 -35 4
-57 1 -37 8 -46 82 -114 44 -40 82 -72 84 -70 2 2 -3 99 -11 214 -7 116 -14
226 -14 246 0 33 -3 37 -39 47 -56 17 -135 27 -129 16z"/>
<path d="M10435 10863 c3 -60 8 -130 10 -158 2 -27 7 -102 11 -165 l6 -116 92
-84 91 -84 6 29 c11 50 10 219 -2 301 -13 92 -51 204 -89 259 -27 39 -113 125
-126 125 -3 0 -3 -48 1 -107z"/>
<path d="M9766 10934 c-8 -20 -8 -272 0 -301 5 -19 13 -23 43 -23 33 0 36 -2
37 -30 l1 -30 -63 0 c-35 0 -64 -4 -64 -9 0 -5 9 -30 19 -54 l20 -45 -51 31
c-49 31 -56 32 -157 32 -95 0 -112 -3 -166 -28 -77 -36 -189 -122 -261 -200
-172 -186 -255 -367 -242 -530 9 -113 37 -157 265 -418 127 -146 148 -186 141
-281 -9 -140 -135 -305 -290 -381 -82 -41 -132 -53 -172 -43 -33 8 -34 41 -6
150 37 146 118 274 199 316 34 17 38 17 47 2 19 -30 44 -7 44 40 0 101 -99
178 -227 178 -71 0 -107 -17 -171 -80 -132 -131 -206 -296 -206 -465 0 -72 4
-100 22 -139 38 -84 66 -112 161 -160 111 -55 180 -70 291 -63 317 20 566 270
565 567 -1 154 -53 257 -215 425 -148 153 -200 236 -200 316 0 106 174 361
327 481 74 58 178 118 204 118 38 0 29 -28 -43 -136 -93 -139 -193 -336 -208
-411 -36 -172 70 -344 228 -369 35 -5 44 -3 66 19 31 31 32 51 6 108 -11 24
-20 60 -20 80 0 80 65 218 200 419 43 63 83 126 89 138 7 13 15 21 19 18 11
-12 63 161 72 244 5 47 11 94 12 105 2 16 -4 21 -30 23 -19 2 -54 16 -79 32
l-46 29 105 3 105 3 -82 75 c-45 41 -127 117 -183 168 -77 71 -101 88 -106 76z"/>
<path d="M12029 10896 c-4 -4 -294 -16 -389 -16 l-56 0 -140 -152 c-77 -84
-156 -170 -174 -192 l-34 -39 109 6 c61 4 243 12 405 18 162 6 300 12 307 14
27 9 74 172 88 303 l7 62 -59 0 c-33 0 -62 -2 -64 -4z"/>
<path d="M10160 10576 c0 -4 -18 -90 -40 -192 -22 -103 -40 -187 -40 -189 0
-5 114 -24 180 -30 64 -6 247 8 304 23 28 8 24 12 -178 197 -195 179 -226 205
-226 191z"/>
<path d="M5105 10560 c-229 -20 -464 -85 -602 -169 -124 -74 -157 -135 -142
-262 9 -79 75 -211 112 -224 57 -19 83 24 59 99 -11 34 -13 53 -6 65 32 50
222 137 410 186 113 29 264 55 264 46 0 -4 -16 -23 -36 -42 -51 -48 -319 -370
-416 -498 l-80 -108 -162 -6 c-185 -7 -321 -28 -386 -60 -80 -39 -115 -151
-70 -225 26 -42 44 -48 76 -27 14 9 44 23 66 31 42 15 275 40 285 31 3 -3 -17
-43 -45 -89 -204 -339 -236 -530 -114 -670 43 -49 123 -82 176 -74 44 7 76 30
76 54 0 8 -13 30 -30 49 -37 41 -38 68 -6 159 40 115 53 141 178 351 104 176
123 202 142 198 11 -2 53 -7 91 -11 39 -3 73 -8 76 -10 3 -2 -11 -54 -31 -116
-53 -158 -73 -266 -74 -383 -1 -115 16 -165 68 -196 46 -28 127 -26 162 4 l27
24 -12 80 c-20 128 13 289 99 476 30 67 31 68 63 62 95 -19 253 -58 259 -64 4
-4 -2 -31 -14 -61 -15 -39 -22 -78 -22 -135 -1 -70 2 -86 28 -132 16 -29 45
-63 65 -76 72 -47 157 -62 167 -29 11 38 84 175 172 322 90 149 251 384 259
377 2 -2 -3 -31 -12 -63 -28 -113 -36 -201 -21 -237 24 -57 87 -117 128 -124
55 -8 77 11 148 134 69 119 173 275 196 294 9 7 5 -12 -12 -57 -102 -272 -169
-501 -180 -620 -12 -134 35 -243 125 -289 54 -27 82 -31 112 -15 24 14 24 29
-3 85 l-22 45 38 152 c44 181 193 632 266 808 80 192 89 221 90 274 0 43 -4
53 -39 87 -59 60 -90 53 -218 -48 -47 -36 -128 -107 -180 -157 l-96 -91 27 52
c37 75 36 141 -4 186 -42 49 -81 63 -130 48 -106 -32 -291 -223 -458 -474 -36
-53 -67 -96 -69 -94 -2 2 26 73 61 158 135 322 140 444 19 495 -66 28 -108 7
-98 -49 5 -26 -6 -56 -55 -157 -34 -69 -82 -172 -107 -230 -24 -58 -48 -109
-52 -113 -7 -7 -276 54 -287 66 -3 3 46 130 109 283 155 376 177 441 184 542
6 81 5 83 -22 112 -16 17 -45 35 -64 40 -50 15 -374 20 -506 10z m123 -734
l-92 -207 -61 6 c-33 4 -62 9 -64 11 -2 2 25 43 59 91 83 115 241 315 246 310
2 -2 -38 -97 -88 -211z"/>
<path d="M12557 10542 c-10 -11 -17 -36 -17 -61 0 -29 -27 -109 -91 -269 -49
-124 -92 -228 -94 -231 -3 -2 -17 10 -32 26 -96 103 -235 86 -371 -45 -103
-99 -209 -288 -285 -507 -88 -253 -74 -426 44 -544 50 -50 119 -74 211 -73 80
0 107 14 140 72 13 22 26 40 31 40 4 0 7 -24 7 -53 0 -63 30 -189 59 -244 55
-107 173 -160 234 -106 24 22 21 40 -10 82 -26 34 -28 43 -31 158 -7 252 65
563 248 1078 124 347 150 453 135 550 -7 53 -52 111 -102 131 -43 18 -57 18
-76 -4z m-306 -698 c17 -15 11 -30 -112 -277 -123 -244 -184 -351 -243 -422
l-25 -30 -1 35 c-1 131 130 444 266 637 55 77 80 89 115 57z"/>
<path d="M11675 10440 c-82 -4 -231 -10 -330 -14 l-180 -7 -98 -102 c-106
-110 -152 -165 -146 -172 3 -2 65 -9 139 -15 282 -24 577 24 748 122 57 32
160 122 193 169 l20 29 -98 -2 c-54 0 -165 -4 -248 -8z"/>
<path d="M10063 10060 c-28 -11 -57 -55 -49 -75 3 -9 -5 -38 -19 -65 -62 -123
-166 -413 -206 -575 -34 -142 -39 -272 -12 -350 31 -93 145 -175 242 -175 31
0 82 48 131 125 l31 50 -5 -35 c-26 -171 -17 -225 50 -299 54 -60 126 -93 191
-89 70 5 74 21 28 112 -37 73 -38 77 -32 151 4 42 14 104 22 138 48 189 179
561 281 796 64 149 71 178 50 218 -16 32 -102 77 -134 71 -9 -2 -44 -48 -78
-103 -350 -566 -542 -865 -555 -865 -18 0 48 218 148 490 88 238 103 287 103
342 0 41 -5 54 -36 88 -21 23 -51 44 -72 50 -43 12 -50 12 -79 0z"/>
<path d="M10976 10057 c-14 -11 -18 -21 -13 -44 5 -24 -10 -63 -73 -195 -77
-162 -212 -489 -264 -640 -60 -174 -7 -325 129 -372 70 -23 105 -22 105 5 0
50 261 485 397 661 46 60 73 85 55 51 -20 -36 -153 -439 -178 -538 -64 -248
-32 -394 98 -459 59 -29 86 -32 114 -12 18 13 18 17 4 48 -23 51 -18 158 14
283 56 222 202 643 301 870 76 174 79 245 14 299 -58 49 -83 45 -209 -34 -117
-74 -257 -227 -401 -437 -39 -57 -72 -103 -75 -103 -2 0 3 17 12 38 138 320
164 435 119 523 -27 51 -112 83 -149 56z"/>
<path d="M13786 10049 c-18 -14 -26 -30 -26 -50 0 -16 -10 -49 -21 -71 -12
-23 -43 -96 -69 -163 -187 -474 -217 -720 -102 -847 46 -52 122 -88 183 -88
43 0 50 4 92 49 61 65 105 135 199 316 43 83 78 146 78 142 0 -17 -102 -279
-154 -397 -133 -294 -257 -485 -348 -531 -50 -25 -70 -21 -132 31 -59 49 -88
58 -121 36 -29 -19 -33 -61 -10 -106 l16 -30 -4411 0 -4410 0 0 -110 0 -110
5225 0 5225 0 0 110 0 110 -520 0 -520 0 41 52 c58 73 142 221 195 339 126
285 314 971 314 1146 0 90 -20 123 -99 163 -104 52 -88 68 -266 -257 -169
-306 -379 -671 -397 -688 -30 -28 29 173 136 470 104 285 107 295 109 348 4
107 -131 196 -207 136z"/>
<path d="M7588 10035 c-235 -86 -568 -585 -619 -927 -24 -164 51 -266 209
-285 63 -7 86 6 152 87 61 74 182 205 220 236 l25 22 0 -137 c0 -115 3 -140
18 -163 22 -32 96 -63 130 -54 22 5 24 12 30 90 9 105 51 273 111 438 26 71
49 141 52 157 9 45 -13 97 -57 135 -58 49 -81 52 -148 20 -68 -33 -256 -218
-346 -341 -33 -45 -61 -80 -64 -78 -8 8 112 235 173 329 69 106 222 266 255
266 11 0 44 -12 71 -27 43 -24 52 -26 60 -13 41 63 -43 203 -147 247 -40 16
-77 16 -125 -2z"/>
<path d="M13150 10041 c-239 -73 -585 -575 -638 -926 -25 -165 46 -269 199
-290 66 -9 95 4 144 67 52 68 244 278 254 278 4 0 7 -55 7 -122 -1 -138 5
-168 36 -198 26 -24 84 -42 113 -34 20 5 23 14 28 87 9 130 32 220 119 465 47
132 50 145 40 181 -16 52 -46 87 -94 112 -32 17 -45 18 -70 10 -86 -30 -256
-190 -381 -358 -33 -46 -63 -80 -66 -78 -8 8 103 223 159 310 102 157 226 285
274 285 10 0 37 -12 62 -26 36 -21 47 -24 59 -14 37 31 8 118 -62 186 -69 68
-118 85 -183 65z"/>
<path d="M3201 9883 c-86 -296 -115 -513 -115 -863 1 -286 15 -419 70 -669 96
-430 309 -872 594 -1231 106 -134 355 -384 487 -488 485 -383 1056 -609 1673
-661 136 -12 8052 -12 8185 0 544 47 1054 225 1485 519 67 46 240 216 342 336
359 426 571 904 654 1479 22 147 25 553 6 690 -22 155 -54 315 -64 315 -5 0
-6 -16 -2 -37 5 -21 8 -135 7 -253 -1 -252 -21 -414 -82 -654 -217 -847 -850
-1541 -1680 -1843 -123 -44 -324 -97 -481 -125 l-125 -23 -4075 -3 c-2971 -2
-4106 0 -4190 8 -263 26 -587 108 -865 220 -43 17 -145 65 -225 105 -679 345
-1206 947 -1454 1663 -165 477 -207 963 -126 1457 11 66 23 130 26 143 4 12 2
22 -4 22 -5 0 -24 -48 -41 -107z"/>
<path d="M9567 7799 c-87 -21 -156 -69 -189 -133 -31 -61 -23 -162 18 -213 42
-53 110 -96 207 -132 169 -63 206 -95 192 -162 -11 -47 -57 -71 -128 -66 -71
4 -107 28 -127 85 l-14 42 -99 0 -100 0 7 -41 c13 -80 68 -154 146 -194 89
-46 259 -56 359 -20 113 40 173 136 155 250 -14 96 -96 175 -234 225 -30 11
-74 27 -98 36 -102 38 -133 106 -71 158 66 55 187 23 204 -54 l7 -30 99 0
c109 0 106 -2 88 65 -23 87 -89 149 -189 179 -58 17 -171 20 -233 5z"/>
<path d="M4710 7375 l0 -425 100 0 100 0 0 170 0 170 165 0 165 0 0 80 0 80
-165 0 -165 0 0 100 0 100 180 0 180 0 0 75 0 75 -280 0 -280 0 0 -425z"/>
<path d="M5500 7796 c0 -2 -63 -176 -141 -387 -78 -211 -147 -401 -155 -421
l-13 -38 108 0 108 0 23 80 23 81 145 -3 145 -3 24 -77 24 -78 108 0 108 0
-148 403 c-82 221 -153 412 -159 425 -9 21 -16 22 -105 22 -52 0 -95 -2 -95
-4z m145 -376 c21 -69 40 -131 43 -137 3 -10 -18 -13 -87 -13 -50 0 -91 3 -91
8 0 23 85 281 90 275 4 -5 24 -64 45 -133z"/>
<path d="M6070 7376 l0 -426 100 0 100 0 0 150 0 150 58 0 58 0 74 -150 74
-150 108 0 c60 0 108 2 108 5 0 2 -38 78 -85 168 -47 90 -85 168 -85 173 0 6
20 24 45 42 67 47 90 98 90 203 0 78 -3 90 -30 135 -25 39 -44 56 -99 84 l-69
35 -223 3 -224 4 0 -426z m385 260 c82 -35 87 -179 8 -215 -13 -6 -62 -11
-108 -11 l-85 0 0 120 0 120 75 0 c43 0 90 -6 110 -14z"/>
<path d="M6860 7375 l0 -425 102 0 101 0 -7 198 c-3 108 -9 244 -11 302 -3 58
-3 101 0 95 3 -5 50 -140 104 -300 l99 -290 67 0 67 0 99 290 c54 160 101 295
104 300 3 6 3 -35 0 -90 -2 -55 -8 -191 -11 -302 l-7 -203 101 0 102 0 0 425
0 425 -132 0 -133 0 -89 -283 c-49 -155 -92 -288 -96 -295 -4 -8 -32 65 -64
165 -31 98 -74 230 -95 293 l-38 115 -131 3 -132 3 0 -426z"/>
<path d="M7910 7375 l0 -425 290 0 290 0 0 80 0 80 -190 0 -190 0 0 100 0 100
160 0 160 0 0 75 0 75 -160 0 -160 0 0 95 0 95 190 0 190 0 0 75 0 75 -290 0
-290 0 0 -425z"/>
<path d="M8580 7376 l0 -426 100 0 100 0 0 150 0 150 58 0 58 0 74 -150 74
-150 108 0 c60 0 108 2 108 5 0 2 -38 78 -85 168 -47 90 -85 168 -85 173 0 6
20 24 45 42 67 47 90 98 90 203 0 78 -3 90 -30 135 -25 39 -44 56 -99 84 l-69
35 -223 3 -224 4 0 -426z m385 260 c82 -35 87 -179 8 -215 -13 -6 -62 -11
-108 -11 l-85 0 0 120 0 120 75 0 c43 0 90 -6 110 -14z"/>
<path d="M10410 7375 l0 -425 102 0 101 0 -7 198 c-3 108 -9 244 -11 302 -3
58 -3 101 0 95 3 -5 50 -140 104 -300 l99 -290 67 0 67 0 99 290 c54 160 101
295 104 300 3 6 3 -35 0 -90 -2 -55 -8 -191 -11 -302 l-7 -203 101 0 102 0 0
425 0 425 -132 0 -133 0 -89 -283 c-49 -155 -92 -288 -96 -295 -4 -8 -32 65
-64 165 -31 98 -74 230 -95 293 l-38 115 -131 3 -132 3 0 -426z"/>
<path d="M11720 7796 c0 -2 -63 -176 -141 -387 -78 -211 -147 -401 -155 -421
l-13 -38 108 0 108 0 23 80 23 81 145 -3 145 -3 24 -77 24 -78 108 0 108 0
-148 403 c-82 221 -153 412 -159 425 -9 21 -16 22 -105 22 -52 0 -95 -2 -95
-4z m145 -376 c21 -69 40 -131 43 -137 3 -10 -18 -13 -87 -13 -50 0 -91 3 -91
8 0 23 85 281 90 275 4 -5 24 -64 45 -133z"/>
<path d="M12290 7376 l0 -426 100 0 100 0 0 150 0 150 58 0 58 0 74 -150 74
-150 108 0 c60 0 108 2 108 5 0 2 -38 78 -85 168 -47 90 -85 168 -85 173 0 6
20 24 45 42 67 47 90 98 90 203 0 78 -3 90 -30 135 -25 39 -44 56 -99 84 l-69
35 -223 3 -224 4 0 -426z m385 260 c82 -35 87 -179 8 -215 -13 -6 -62 -11
-108 -11 l-85 0 0 120 0 120 75 0 c43 0 90 -6 110 -14z"/>
<path d="M13080 7375 l0 -425 100 0 100 0 0 114 0 114 43 47 42 47 90 -159 91
-158 118 -3 c94 -2 117 0 113 10 -2 8 -61 106 -129 218 -69 113 -130 215 -136
227 -11 19 2 39 121 195 73 95 136 179 141 186 6 9 -20 12 -116 12 l-123 0
-127 -187 -128 -186 0 186 0 187 -100 0 -100 0 0 -425z"/>
<path d="M13840 7375 l0 -425 290 0 290 0 0 80 0 80 -190 0 -190 0 0 100 0
100 160 0 160 0 0 75 0 75 -160 0 -160 0 0 95 0 95 190 0 190 0 0 75 0 75
-290 0 -290 0 0 -425z"/>
<path d="M14480 7725 l0 -74 128 -3 127 -3 3 -347 2 -348 100 0 100 0 0 350 0
350 125 0 125 0 0 75 0 75 -355 0 -355 0 0 -75z"/>
</g>
</svg>
